<?xml version="1.0" encoding="UTF-8"?>
<!DOCTYPE svg PUBLIC "-//W3C//DTD SVG 1.1//EN" "http://www.w3.org/Graphics/SVG/1.1/DTD/svg11.dtd">
<!-- Creator: CorelDRAW 2018 (64-Bit) -->
<svg xmlns="http://www.w3.org/2000/svg" xml:space="preserve" width="207.451mm" height="78.539mm" version="1.1" style="shape-rendering:geometricPrecision; text-rendering:geometricPrecision; image-rendering:optimizeQuality; fill-rule:evenodd; clip-rule:evenodd"
viewBox="0 0 20745.1 7853.9"
 xmlns:xlink="http://www.w3.org/1999/xlink">
 <defs>
  <style type="text/css">
   <![CDATA[
    .fil2 {fill:#FEFEFE;fill-rule:nonzero}
    .fil0 {fill:#5B5B5B;fill-rule:nonzero}
    .fil1 {fill:#FFDD00;fill-rule:nonzero}
    .fil4 {fill:#E31E24;fill-rule:nonzero}
    .fil3 {fill:#00A0E3;fill-rule:nonzero}
   ]]>
  </style>
 </defs>
 <g id="Warstwa_x0020_1">
  <metadata id="CorelCorpID_0Corel-Layer"/>
  <g id="_1957716207472">
   <path class="fil0" d="M6297.25 -0.01l1395.25 0 262.52 72.35 1419.08 818.38c372.15,214.62 428.98,642.25 293.3,1073.46 -37.78,120.08 -90.69,242.79 -153.57,357.47 -62.52,114.02 -138.41,225.07 -222.71,322.8 -288.42,334.35 -666.92,503.2 -1059.02,295.49l-602.92 -319.4 -494.22 3645.35 -0.45 -0.06c-60.23,531.46 -509.77,872.84 -1121.37,1043.98 -324.61,90.83 -706.59,136.19 -1089.26,136.61 -380.9,0.4 -766.26,-43.57 -1099.63,-131.39 -661.53,-174.27 -1161.17,-533.86 -1223.89,-1095.08l-485.07 -3599.6 -608.89 321.65 -2.07 0c-398.55,207.97 -786.51,61.15 -1077.95,-252.55 -92.82,-99.91 -174.31,-215.84 -238.77,-337.28 -62.86,-118.4 -113.58,-250.83 -146.63,-387.06 -106.39,-438.42 -16.75,-882.8 400.75,-1119.65l0.38 0.66 1343.62 -773.78 262.52 -72.35 1793.91 0 114.85 376.21c76.98,252.16 214.56,433.39 381.36,547.03 147.39,100.41 319.35,150.46 492.83,151.64 181.03,1.23 363.79,-48.58 524.27,-147.86 190.96,-118.13 351.91,-309.21 443.62,-571.48l124.34 -355.54 373.82 0z"/>
   <path class="fil1" d="M7692.49 529.16l-1395.24 0c-489.12,1398.65 -2398.26,1461.91 -2844.6,0l-1404.4 0 -1346.07 775.19c-469.41,266.3 117.84,1400.31 558.24,1170.5l780.36 -412.23c229.74,-121.26 529.72,-16.14 567.99,268.66l515.61 3826.31c102.61,992.46 3399.11,1025.5 3487.62,38.02l516.76 -3811.6c45.31,-334.14 325.29,-453.68 607.17,-304.39l742.15 393.16c376.58,199.51 957.39,-938.43 633.5,-1125.24l-1419.09 -818.38z"/>
   <path class="fil2" d="M11655.32 2078.56l0 388.64c33.46,-26.02 69.45,-50.55 107.94,-73.58 84.19,-50.35 178.51,-87.68 283.12,-111.85 98.37,-22.73 204.43,-34.15 318.24,-34.15 133.28,0 253.26,12.54 359.84,37.62 118.24,27.84 220.96,72.14 307.97,132.91l0.51 -0.73c55.28,38.4 103.96,80.75 146.03,127.02 6.11,-8.58 12.48,-17.02 19.1,-25.33 41.24,-51.73 92.79,-99.04 154.5,-141.81 62.77,-43.53 131.75,-76.1 206.75,-97.79 73.64,-21.29 149.18,-31.89 226.54,-31.89 48.07,0 95.17,3.77 141.37,11.24l0 -180.3c0,-151.93 123.18,-275.11 275.11,-275.11l667.96 0c151.93,0 275.11,123.18 275.11,275.11l0 209.75 628.5 0c42.76,0 83.23,9.76 119.33,27.16 80.64,-38.19 168.15,-60.44 262.51,-66.78 58.86,-3.92 114.63,11.01 161.4,39.62l663.26 0c35.93,0 70.26,6.9 101.73,19.43 31.46,-12.53 65.79,-19.43 101.72,-19.43l635.27 0 0 -209.75c0,-151.93 123.18,-275.11 275.11,-275.11l667.97 0c151.93,0 275.11,123.18 275.11,275.11 0,8.01 -0.36,15.94 -1.03,23.78l0.27 185.97 403.3 0 0 -209.75c0,-151.93 123.18,-275.11 275.11,-275.11l688.3 0c151.93,0 275.11,123.18 275.11,275.11l0 349.23c0,23.4 -2.93,46.12 -8.43,67.81 5.5,21.7 8.43,44.42 8.43,67.82l0 2197.14c0,151.93 -123.18,275.11 -275.11,275.11l-688.3 0c-18,0 -35.59,-1.75 -52.62,-5.05 -16.45,3 -32.87,4.46 -49.1,4.47l0 0.58 -639.14 0c-38.09,0 -74.37,-7.74 -107.35,-21.74 -32.22,13.31 -67.53,20.67 -104.55,20.67l0 1.07 -667.97 0c-43.5,0 -84.64,-10.11 -121.21,-28.1 -36.57,17.99 -77.71,28.1 -121.21,28.1l-679.83 0c-33.4,0 -65.41,-5.96 -95.02,-16.86 -91.43,38.36 -190.86,57.55 -298.28,57.55 -67.86,0 -132.92,-6.56 -194.97,-19.74 -66.97,-14.24 -128.67,-36.45 -184.85,-66.69l-5.05 -2.8c-53.04,-28.87 -100.09,-63.11 -141.24,-102.72 -45.33,-43.62 -82.57,-92.6 -111.85,-146.96l-3.87 -7.5c-21.19,-40.8 -39.08,-83.49 -53.54,-128.35 -14.45,-44.81 -24.79,-88.71 -30.91,-131.86l0 290.82c0,151.93 -123.18,275.11 -275.11,275.11l-667.96 0c-42.83,0 -83.37,-9.79 -119.52,-27.26 -36.14,17.47 -76.69,27.26 -119.52,27.26l-667.96 0c-40.4,0 -78.77,-8.71 -113.33,-24.36 -45.24,19.33 -91.16,34.32 -137.79,44.88 -59.11,13.4 -117.05,20.17 -173.83,20.17 -79.01,0 -154.23,-10.74 -225.51,-32.31 -72.34,-21.9 -140.82,-55.97 -205.3,-102.29l-13.45 -9.87c-50.41,63.24 -128.08,103.78 -215.23,103.78l-650.99 0c-34.04,0 -66.64,-6.2 -96.73,-17.51 -31.58,13.48 -64.86,24.71 -99.84,33.7 -63.59,16.33 -127.82,24.5 -192.8,24.5 -83.32,0 -165.94,-12.49 -247.78,-37.48 -80.37,-24.53 -156.03,-60.59 -226.93,-108.13l-0.73 -0.5 -0.34 0.5 -3.53 -2.42c-50.31,65.27 -129.25,107.34 -218.02,107.34l-610.34 0c-69.5,0 -132.97,-25.78 -181.39,-68.3 -48.43,42.51 -111.9,68.3 -181.4,68.3l-583.19 0c-151.93,0 -275.11,-123.18 -275.11,-275.11l0 -2682c0,-151.93 123.18,-275.11 275.11,-275.11l583.19 0c76.19,0 145.14,30.98 194.96,81.02 49.82,-50.04 118.77,-81.02 194.96,-81.02l583.21 0c151.93,0 275.11,123.18 275.11,275.11zm-550.22 2406.89l0 -2131.78 -32.99 0 0 932.52 -0.79 0c0.02,116 -74.12,223.79 -190.5,261.14 -64.02,20.55 -130.06,16.32 -187.75,-7.35l281.26 945.47 130.77 0zm-972.49 -944.39c-0.06,-118.68 77.47,-228.14 197.1,-263.29 61.35,-18.03 123.98,-13.63 179.08,8.4l-301.09 -932.5 -108.7 0 0 2131.78 32.97 0 0 -944.39 0.64 0zm1756.39 -401.7l72.52 0c0.65,-46.65 2.32,-88.16 5.02,-124.43 3.16,-40.94 8.36,-76.96 15.66,-107.98 -7.04,5.61 -13.52,11.17 -19.46,16.67 -3.23,3.7 -6.57,7.33 -10.03,10.89 -15.71,16.24 -26.53,31.26 -32.33,44.98 -9.83,23.38 -18.09,57.27 -24.72,101.7 -2.69,18.05 -4.91,37.44 -6.66,58.17zm830.14 -271.66c-13.78,-9.64 -30.63,-18.4 -50.53,-26.29l1.43 2.88c23.28,47.31 38.71,104.42 46.44,171.49 5.75,49.85 8.58,107.53 8.58,173.21 0,51.85 -3.05,101.39 -9.02,148.51 -8.14,64.05 -22.96,116.92 -44.24,158.68l-0.4 -0.2 -1.75 3.42c-5.21,9.86 -11.23,19.58 -18.05,29.16 45.58,49.1 73.46,114.85 73.46,187.11l0 452.09c0,56.5 -2.26,109.29 -6.88,158.79 -3.27,35.08 -8.56,66.87 -15.89,95.43 11.93,19.68 21.45,40.97 28.19,63.47l112.31 0 0 -827.98c0,-187.32 -2.6,-333.54 -7.71,-438.79 -5.07,-104.42 -12.43,-180.61 -21.95,-228.5 -3.99,-20.06 -12,-38.68 -24,-55.76 -15.55,-22.14 -38.89,-44.04 -69.99,-65.64l0.51 -0.73 -0.51 -0.35zm-730.34 1646.76c14.19,4.33 29.65,7.46 46.37,9.38 -10.42,-16.1 -19.65,-33.28 -27.7,-51.56l0.58 -0.26c-19.53,-43.98 -32.51,-97.96 -39.1,-162.38l0.12 -0.01 -0.12 -1.06c-5.18,-50.78 -7.73,-106.44 -7.73,-167.37 0,-57.12 2.83,-110.91 8.58,-161.62 4.02,-35.44 9.45,-68.11 16.31,-98.05 -11.65,5.82 -22.79,11.59 -33.4,17.32 -35.24,19 -54.67,30.59 -58.25,34.72 -3.79,4.37 4.36,-0.81 1.69,10.69 -7.97,34.39 -11.97,83.09 -11.97,146.08l0 180.84c0,81.9 7.15,143.98 21.47,186.24 4.49,13.26 1.27,16.2 3.45,17.67l-0.33 0.49c26.59,17.75 53.29,30.73 80.03,38.88zm2606.39 -29.01l0 -2131.78 -117.74 0 0 349.33 -0.63 0c-0.01,50.56 -13.92,101.03 -41.47,145.2 15.97,37.12 27.17,81.37 33.73,132.7 5.62,43.98 8.37,88.98 8.37,135.19l0 1017.2c0,63.54 -2.55,122 -7.66,175.4 -5.68,59.59 -16.28,109.59 -31.75,149.99 5.2,8.63 9.94,17.56 14.19,26.77l142.96 0zm-817.8 40.69l12.71 -0.23c-7.76,-12.27 -14.89,-25.19 -21.4,-38.76 -20.58,-42.9 -34.29,-93.71 -41.05,-152.32 -4.82,-41.8 -7.24,-89.21 -7.24,-142.2l0 -1076.54c0,-53.64 2.41,-100.04 7.31,-139.26 7.88,-63.12 24.53,-117.2 50.14,-162.29 3.24,-5.7 6.57,-11.27 10,-16.7l-2 0c-30.22,0 -54.9,2.75 -73.94,8.25 -17.3,5 -33.23,12.53 -47.71,22.57 -15.81,10.95 -27.92,21.7 -36.28,32.19 -3.73,4.69 -5.74,7.43 -5.95,8.13 -5.3,17.46 -9.78,46.47 -13.41,86.96 -3.93,43.9 -5.9,108.23 -5.9,192.93l0 1029.06c0,80.55 1.98,142.24 5.9,185.15 3.48,37.96 8.32,67.26 14.49,87.9 1.11,3.73 3.33,7.74 6.59,11.96 8.38,10.83 20.8,22.16 37.17,33.92 11.65,8.37 26.38,15.25 44.1,20.61 19.12,5.78 41.31,8.67 66.47,8.67zm1957.55 -1398.94l-6.25 -0.41c-148.91,-11.67 -260.77,-139.97 -253.02,-288.26l-91.22 0 0 1646.92 117.74 0 0 -592.9c0,-100.74 2.07,-192.65 6.09,-275.25 3.41,-69.94 9.02,-126.64 16.76,-170 1.11,-8.18 2.57,-16.37 4.45,-24.57 15.63,-68.43 44.22,-129.77 86.03,-184.3 33,-43.01 72.76,-80.04 119.42,-111.23zm1841.77 1358.25l0 -1646.92 -117.74 0 0 1203.78c0,81.47 -1.48,156.84 -4.53,226.56 -2.21,50.57 -6.09,92.63 -11.71,126.17 -1.58,12.83 -4.08,25.71 -7.56,38.55 -1.87,6.88 -3.9,13.62 -6.11,20.24 5.15,10.21 9.69,20.76 13.56,31.62l134.09 0zm-879.07 33.85c19.68,4.18 44.06,6.44 72.98,6.79 -15.17,-24.24 -27.38,-50.92 -36.59,-80.05l1 -0.32c-12.83,-40.23 -21.06,-96.35 -24.77,-168.63 -3.34,-64.65 -4.96,-137.25 -4.96,-218.39l0 -1220.17 -117.73 0 0 1207.17c0,112.7 0.61,188.05 1.78,227.26 1.35,45.43 3.47,82.2 6.29,110.22l1.08 7.83c2.08,16.8 5.05,31.08 8.88,42.95 4.17,12.94 10.15,26.9 17.84,41.83l0.89 1.6c2.37,4.41 5.27,8.27 8.67,11.54 5.23,5.04 12.3,10.01 21.17,14.92l4.76 2.48c9.71,5.22 22.66,9.56 38.71,12.97zm2304.17 -1160l13.5 -43.63c-42.18,97.02 -138.87,164.88 -251.41,164.88 -151.34,0 -274.04,-122.7 -274.04,-274.04l-1.28 -852.84 -119.23 0 0 2131.78 119.31 0 1.16 -660.8c-10.41,-134.88 80.12,-260.13 216.05,-289.48 148.37,-32.04 294.65,62.26 326.69,210.63l162.51 739.65 61.52 0 -258.01 -975.7 0.14 -0.04c-12.64,-47.82 -12.51,-99.65 3.09,-150.41zm1126.35 1126.15l0 -1646.92 -138.08 0 0 1646.92 138.08 0z"/>
   <path class="fil3" d="M11380.2 2078.56l0 2682 -610.32 0 -362.8 -1219.5 0 1219.5 -583.19 0 0 -2682 583.19 0 389.92 1207.63 0 -1207.63 583.2 0zm856.14 1335.91l-627.27 0 0 -147.49c0,-170.1 19.78,-301.2 58.77,-393.88 38.99,-92.11 118.11,-173.49 236.21,-244.13 118.11,-70.64 271.26,-106.24 460.57,-106.24 226.04,0 396.7,40.12 511.42,120.37 114.72,79.68 183.66,178.01 206.83,294.42 23.17,116.41 35.04,356.58 35.04,719.95l0 1103.09 -651.01 0 0 -196.09c-40.69,79.11 -93.81,137.88 -158.23,177.44 -64.42,39.56 -141.28,59.34 -231.13,59.34 -116.98,0 -224.35,-32.78 -322.11,-98.33 -97.76,-66.12 -146.36,-209.66 -146.36,-431.74l0 -180.84c0,-164.45 25.99,-276.34 77.98,-336.24 51.99,-59.9 180.84,-129.41 386.54,-208.52 219.82,-86.46 337.37,-144.11 353.19,-174.06 15.26,-29.95 23.17,-90.41 23.17,-182.53 0,-114.71 -8.48,-189.31 -26,-224.34 -16.95,-34.48 -45.77,-51.99 -85.89,-51.99 -45.78,0 -74.03,14.69 -84.77,44.07 -11.3,28.82 -16.95,105.11 -16.95,227.74l0 230zm213.61 301.2c-107.94,78.55 -170.66,144.11 -187.62,197.23 -17.52,53.12 -25.99,128.84 -25.99,228.3 0,114.15 7.34,187.05 22.6,220.39 14.69,33.34 44.65,49.73 89.29,49.73 42.38,0 69.51,-12.99 82.5,-38.99 13,-25.99 19.22,-93.81 19.22,-204.57l0 -452.09zm2420.35 -1637.11l0 2682 -667.95 0 0 -159.93c-64.43,67.25 -131.67,116.98 -202.31,150.32 -71.21,33.34 -145.24,50.3 -222.65,50.3 -103.98,0 -194.4,-27.13 -270.69,-81.94 -76.29,-54.82 -125.46,-118.11 -146.93,-189.88 -21.47,-71.77 -32.21,-188.75 -32.21,-351.5l0 -1029.06c0,-168.97 10.74,-288.77 32.21,-359.41 21.47,-70.64 71.2,-132.8 148.62,-186.48 77.42,-53.69 170.1,-80.25 277.47,-80.25 83.07,0 158.8,15.26 228.31,45.21 68.94,29.95 131.67,74.59 188.18,135.06l0 -624.44 667.95 0zm-667.95 1037.53c0,-80.24 -6.78,-134.49 -20.91,-162.18 -14.13,-27.69 -41.82,-41.25 -83.07,-41.25 -40.69,0 -67.82,12.43 -81.94,37.29 -14.13,24.87 -20.91,80.25 -20.91,166.14l0 1076.54c0,89.28 6.78,148.05 20.34,176.31 13.56,28.26 38.99,42.38 77.42,42.38 43.51,0 72.9,-15.82 87.03,-47.47 14.69,-31.08 22.04,-107.93 22.04,-230.56l0 -1017.2zm1571.56 -552.67l-23.73 289.33c97.76,-207.96 239.04,-317.59 423.83,-330.02l0 773.07c-122.63,0 -213.05,16.39 -270.69,49.73 -57.64,33.34 -92.68,79.11 -106.24,138.45 -13,58.77 -19.78,194.96 -19.78,408.57l0 868.01 -667.96 0 0 -2197.14 664.57 0zm2077.91 0l0 2197.14 -679.83 0 11.87 -183.1c-46.34,74.6 -103.42,130.54 -171.23,167.84 -67.81,37.3 -145.8,55.95 -233.95,55.95 -100.03,0 -183.67,-17.52 -249.78,-53.12 -66.12,-35.04 -114.72,-81.94 -146.37,-140.71 -31.08,-58.78 -50.86,-119.24 -58.77,-183.1 -7.34,-63.29 -11.3,-189.31 -11.3,-378.62l0 -1482.28 667.96 0 0 1495.28c0,171.22 5.08,272.38 15.82,304.59 10.17,32.21 38.99,48.03 85.33,48.03 49.17,0 79.12,-16.39 88.16,-49.73 9.61,-32.77 14.13,-139.58 14.13,-319.28l0 -1478.89 667.96 0zm1683.45 0l-271.25 876.48 349.23 1320.66 -639.13 0 -210.22 -956.73 -1.7 956.73 -667.96 0 0 -2682 667.96 0 1.7 1127.95 210.22 -643.09 561.15 0zm868 -484.86l0 349.23 -688.3 0 0 -349.23 688.3 0zm0 484.86l0 2197.14 -688.3 0 0 -2197.14 688.3 0z"/>
   <path class="fil2" d="M1330.79 4032.46l592.74 0c194.99,0 365.63,4.09 512.04,12.36 150.23,8.47 266.4,21.64 348.52,39.58 104.67,22.87 200.4,64 287.17,123.38 84.67,57.96 158.55,131.83 221.59,221.55 64.64,91.48 112.07,205.73 142.26,342.48 10.6,47.99 19.13,98.38 25.58,151.17 12.17,-13.86 24.77,-27.31 37.81,-40.35 71.77,-71.77 156.59,-132.16 254.53,-180.89 7.65,-3.81 15.4,-7.21 23.22,-10.25 86.87,-41.26 177.01,-72.04 270.58,-92.36 101.46,-22.03 207.71,-33.01 318.92,-33.01 131.73,0 255.02,13.2 369.84,39.6 120.23,27.64 228.85,69.77 325.82,126.33 95.22,55.54 177.23,120.32 245.92,194.31l0 -618.79c0,-151.93 123.18,-275.11 275.11,-275.11l802.53 0c151.93,0 275.11,123.18 275.11,275.11 0,8.01 -0.36,15.94 -1.03,23.78l0.42 283.65 595.12 0 0 -307.43c0,-151.93 123.18,-275.11 275.11,-275.11l826.97 0c151.93,0 275.11,123.18 275.11,275.11l0 565.98c54.93,-50.02 118.67,-96.71 191.1,-140.03 96.07,-57.45 204.07,-100.14 324.13,-127.89 113.83,-26.3 237.12,-39.51 370.01,-39.51 156.07,0 296.04,14.58 419.79,43.69 135.43,31.87 252.49,82.24 351.06,151.09l0.51 -0.73c51.55,35.81 98,74.55 139.34,116.2 7.16,-145.55 127.45,-261.37 274.77,-261.37l790.3 0c47.66,0 92.5,12.13 131.59,33.46 47.23,-22.53 96.89,-40.47 148.87,-53.79 74.23,-19.03 149,-28.55 224.01,-28.55 156.89,0 299.17,37.84 427.07,113.63 28.9,17.12 56.76,36.08 83.6,56.87 27.84,-21.38 56.29,-40.57 85.34,-57.53 4.6,-2.69 9.26,-5.21 13.95,-7.6 59.74,-33.72 122.31,-59.35 187.84,-76.86 71.14,-19 144.17,-28.51 219.28,-28.51 194.19,0 361.85,51.32 500.13,153.9l0.27 -0.36c69.15,50.8 126.53,108.72 172.21,173.54 23.34,33.13 43.48,67.99 60.45,104.56 15.89,-22.26 32.82,-43.8 50.78,-64.61 66,-76.47 146.3,-143.34 240.77,-200.58 95.51,-57.87 200.36,-100.42 314.35,-127.5 109.19,-25.92 228.05,-38.95 356.41,-38.95 104.13,0 203.11,8.22 296.83,24.51 96.54,16.78 187.17,42.77 271.82,77.77l0.92 0.39 0.16 -0.39c81.16,33.74 155.57,74.32 223.18,121.7l7.12 5.03c34.34,-92.73 117.83,-163.65 222.72,-176.91 11.56,-1.46 23.04,-2.17 34.39,-2.19l0 -1.03 687.79 0c68.08,0 130.39,24.75 178.42,65.73 48.47,-41.2 111.04,-65.56 178.03,-65.48l0 -0.25 666.06 0c66.45,0 127.4,23.56 174.95,62.79 48.05,-39.36 109.17,-62.32 174.03,-62.25l0 -0.54 690.51 0c113.01,0 210.1,68.16 252.43,165.61 41.24,-29 85.55,-55.3 132.92,-78.87 7.65,-3.81 15.4,-7.21 23.22,-10.25 86.87,-41.26 177.01,-72.04 270.58,-92.36 101.46,-22.03 207.71,-33.01 318.92,-33.01 131.73,0 255.02,13.2 369.84,39.6 120.22,27.64 228.85,69.77 325.82,126.33 98.5,57.46 182.87,124.8 252.98,202 72.53,79.87 129.79,169.69 171.63,269.43l0.38 -0.16c38.21,90.91 66.36,198.01 84.55,321.07 16.83,113.85 25.2,240.84 25.2,380.77l0 349.66c0,29.87 -4.78,58.62 -13.58,85.55 8.8,26.93 13.58,55.68 13.58,85.55l0 195.54c0,87.35 -2.9,166.83 -8.71,238.42 -6.17,76.2 -15.96,143.12 -29.36,200.73 -2.17,9.31 -4.79,18.4 -7.83,27.26 -15.97,57.99 -38.56,115.38 -67.76,172.12 -31.66,61.55 -70.81,123.19 -117.39,184.88 -51.16,67.76 -110.81,128.09 -178.66,181.06 -66.29,51.74 -139.68,94.94 -219.91,129.65l-1.3 0.54 0.22 0.53c-78.43,33.48 -164.38,58.29 -257.88,74.29 -89.31,15.27 -184.68,22.97 -286.15,22.97 -96.74,0 -191.37,-7.54 -283.9,-22.72 -93.65,-15.36 -181.33,-38.52 -262.97,-69.56 -84.49,-31.84 -160.49,-70.2 -227.95,-115.02 -72.33,-48.05 -135.14,-103.45 -188.39,-166.15 -41.04,-48.33 -76.91,-99.3 -107.72,-152.84l-28.29 234.53c-16.52,139.92 -135.43,242.79 -272.96,242.62l0 0.25 -873.82 0c-66.2,0 -126.94,-23.39 -174.41,-62.36 -47.97,39.19 -108.98,62.12 -173.89,62.05l0 0.31 -869.75 0c-148.15,0 -268.94,-117.13 -274.86,-263.82l-32.25 -250.79c-32.36,61.77 -72.04,121.63 -119.01,179.64 -55.32,68.31 -118.24,127.24 -188.74,177.02 -68.92,48.66 -145.2,88.6 -228.78,119.99l-2.25 0.81 0.1 0.27c-76.39,28.28 -159.09,49.73 -248.17,64.24 -87.91,14.31 -177.47,21.53 -268.71,21.53 -95.1,0 -188.6,-5.98 -280.29,-17.84 -94.21,-12.18 -178.55,-30.04 -252.89,-53.46 -7.77,-2.42 -15.34,-5.17 -22.73,-8.2 -75.14,-25.52 -143.19,-57.08 -204.08,-94.64 -55.43,-34.19 -104.88,-73.01 -148.33,-116.42 -16.5,136.16 -132.47,241.67 -273.08,241.67l-778.08 0c-48,0 -93.12,-12.31 -132.4,-33.92 -39.28,21.61 -84.4,33.92 -132.4,33.92l-778.09 0c-47.17,0 -91.56,-11.88 -130.36,-32.8 -38.8,20.92 -83.19,32.8 -130.36,32.8l-778.08 0c-51.21,0 -99.15,-14.01 -140.21,-38.39 -41.06,24.38 -89,38.39 -140.21,38.39l-782.16 0c-41.71,0 -81.24,-9.3 -116.66,-25.91 -41.66,19.43 -86.04,35.21 -133.14,47.3 -71.33,18.33 -143.98,27.5 -218,27.5 -195.27,0 -375.15,-55.14 -539.61,-165.42l-0.73 -0.5 -0.34 0.5c-11.75,-7.95 -23.15,-16.3 -34.2,-25.05 -46.97,84.44 -137.09,141.58 -240.56,141.58l-826.97 0c-21.57,0 -42.55,-2.49 -62.69,-7.18 -19.92,4.43 -39.86,6.59 -59.52,6.6l0 0.58 -767.91 0c-46.4,0 -90.11,-11.5 -128.45,-31.79 -37.76,19.62 -80.66,30.72 -126.16,30.72l0 1.07 -802.53 0c-151.93,0 -275.11,-123.18 -275.11,-275.11l0 -15.59c-36.84,40.28 -77.17,77.48 -120.89,111.61 -66.29,51.74 -139.68,94.94 -219.91,129.65l-1.3 0.54 0.22 0.53c-78.43,33.48 -164.38,58.29 -257.88,74.29 -89.31,15.27 -184.68,22.97 -286.15,22.97 -96.74,0 -191.37,-7.54 -283.9,-22.72 -93.65,-15.36 -181.33,-38.52 -262.97,-69.56 -84.49,-31.84 -160.49,-70.2 -227.95,-115.02 -64.53,-42.87 -121.5,-91.59 -170.84,-146.13l0 29.43c0,151.93 -123.18,275.11 -275.11,275.11l-778.09 0c-45.53,0 -88.46,-11.07 -126.29,-30.65 -37.81,19.58 -80.75,30.65 -126.28,30.65l-839.2 0c-151.93,0 -275.11,-123.18 -275.11,-275.11l0 -3222.34c0,-151.93 123.18,-275.11 275.11,-275.11zm592.74 550.22l-317.63 0 0 2672.12 288.98 0 0 -1179.22c0,-111.35 66.16,-207.24 161.32,-250.53 -95.16,-43.3 -161.32,-139.19 -161.32,-250.54l0 -716.99c0,-141.3 106.55,-257.7 243.67,-273.31 -65.74,-1.02 -137.42,-1.53 -215.02,-1.53zm481.94 10.22c-43.37,-2.45 -91.83,-4.46 -145.38,-6.02 33.03,3.39 64.76,8.72 95.19,16.01 77.66,18.63 142.63,50.83 194.59,96.9 59.67,52.92 101.28,122.59 124.52,208.88 15.48,57.44 23.28,123.49 23.28,198.03l0 177.21c0,87.86 -7.27,164.09 -21.65,228.42 -5.85,26.17 -13.13,50.76 -21.82,73.75 19.1,-6.2 39.19,-10.38 60.04,-12.27 63.37,-5.86 112.74,-16.23 147.98,-31.05 12.75,-5.36 19.85,-9.02 21.2,-10.91l0.21 0.15 0.87 -1.23c7.43,-10.26 15.11,-36.67 22.99,-79.19 12.02,-64.87 18.05,-153.14 18.05,-264.76 0,-120.5 -8.54,-219.5 -25.61,-296.79 -13.92,-63.08 -32.69,-111.38 -56.28,-144.76 -25.21,-35.87 -52.52,-63.89 -81.89,-83.99 -27.29,-18.68 -58.56,-31.88 -93.73,-39.56 -57.74,-12.61 -145.29,-22.21 -262.56,-28.82zm267 1519.82l-9.47 -2.55c23.11,87.69 34.67,203.5 34.67,347.66l0 796.97 227.87 0 0 -575.63c0,-138.37 -1.35,-239.35 -4.11,-302.37 -2.34,-53.58 -4.79,-88.16 -7.33,-103.6l-2.09 -8.33c-1.19,-5.06 -4.16,-11.88 -8.9,-20.38 -8.89,-15.97 -20.78,-33.17 -35.63,-51.5l-5.51 -6.47c-3.07,-3.73 -15.24,-10.85 -36.35,-21.27 -37.42,-18.48 -88.6,-35.8 -153.29,-51.97l0.14 -0.56zm-207.33 -254.15c-1,-22.82 0.85,-45.17 5.24,-66.69 -28.07,13.96 -58.44,25.31 -91.13,34.05l6.05 1.72c28.65,8.33 55.26,18.64 79.84,30.92zm2282.27 121.14l298.52 0 0 -74.55c0,-116.01 -6.24,-216.51 -18.76,-301.25 -11.16,-75.5 -27.16,-138.18 -48.01,-187.81l0.39 -0.16 -0.39 -0.91c-17.14,-40.97 -40.83,-78.09 -70.99,-111.3 -32.95,-36.28 -73.61,-68.52 -121.88,-96.68 -29.59,-17.26 -62.07,-32.07 -97.41,-44.42 26.96,31.89 48.32,68.94 64.07,111.19 16.94,45.48 28.29,101.74 34,169.06 4.44,52.45 6.67,116.17 6.67,191.37l0 192.83c0,56.47 -17.03,108.95 -46.21,152.63zm-744.36 275.11c0,-86.37 39.82,-163.43 102.09,-213.87 -62.27,-50.44 -102.09,-127.5 -102.09,-213.87l0 -192.83c0,-74.81 1.91,-139.17 5.72,-193.1l0.44 -7.16c5.43,-72.84 16.98,-131.29 34.63,-175.45 16.91,-42.26 40.3,-78.91 70.17,-109.93 -35.4,9.99 -68.39,22.02 -99,36.11 -5.51,3.23 -11.16,6.31 -16.96,9.2 -43.61,21.7 -80.45,47.65 -110.53,77.73 -29.88,29.88 -53.2,62.74 -69.95,98.45 -20.08,42.99 -35.99,98.65 -47.71,167.02 -12.74,74.33 -19.12,162.16 -19.12,263.48l0 770.62c0,96.89 2.82,174.93 8.39,234.3 5.16,55.1 13.21,102.61 24.03,142.49l-0.28 0.08 0.28 0.99c8.7,32.25 20.56,62.69 35.65,91.23 15.44,29.2 34.92,57.72 58.52,85.51 19.39,22.84 43.52,43.86 72.33,62.99 33.7,22.38 73.16,42.12 118.33,59.14 15.12,5.75 30.62,11.05 46.5,15.9 -21.79,-23.72 -40.3,-50.53 -55.55,-80.48l0.88 -0.45 -1.95 -3.85c-22.98,-46.88 -38.44,-105.21 -46.18,-174.66 -5.72,-51.3 -8.64,-110.48 -8.64,-177.22l0 -572.37zm775.36 898.68c-20.16,45.02 -46.71,83.91 -79.58,116.6 18.51,-5.54 35.74,-11.72 51.7,-18.53l0.22 0.51c35.76,-15.6 68.57,-34.98 98.25,-58.15 27.8,-21.7 53.72,-48.37 77.64,-80.06 28.76,-38.09 51.43,-73.23 67.95,-105.34 12.21,-23.72 21.06,-44.77 26.54,-63.1l1.77 -8.4c6.87,-29.59 12.37,-69.64 16.46,-120.13 2.76,-34.16 4.66,-72.79 5.68,-115.87l-210.68 0 0 73.88c0,74.3 -3.27,139.83 -9.88,196.65 -7.79,67.1 -21.92,124.9 -42.47,173.45l-3.6 8.49zm1947.27 -1290.92l215.82 -697.36 -102.96 0 -190.39 582.45 -0.48 -0.16c-35.7,109.87 -138.9,189.3 -260.66,189.3 -151.34,0 -274.04,-122.7 -274.04,-274.04l-1.63 -1080.09 -253.79 0 0 2672.12 253.87 0 1.51 -853.55c-10.41,-134.89 80.12,-260.13 216.05,-289.48 148.37,-32.04 294.65,62.26 326.69,210.63l204.87 932.4 190.29 0 -328.38 -1241.77 0.14 -0.04c-12.64,-47.82 -12.51,-99.65 3.09,-150.41zm1355.88 1392.22l0 -2672.12 -276.75 0 0 2672.12 276.75 0zm804.94 -1617.28l201.28 0 0 -1.23c0,-77.75 2.06,-144.35 6.17,-199.6 5.41,-72.63 16.6,-130.72 33.54,-173.96l0.24 0.09c13.84,-35.98 32.08,-67.96 54.76,-95.93 -28.46,10.78 -54.47,23.23 -78.05,37.33 -50.15,29.99 -90.86,61.08 -121.93,93.19l-0.54 -0.52c-22.81,23.68 -39.38,47.6 -49.57,71.68 -13.76,32.73 -24.99,77.91 -33.6,135.61 -5.91,39.63 -10.02,84.07 -12.3,133.34zm925.65 -492.53c-21.42,-5.04 -44.04,-9.41 -67.86,-13.12 36.84,32.77 66.93,72.79 90.11,119.95 25.04,50.92 41.78,113.53 50.38,188.07 6.6,57.38 9.87,124.62 9.87,201.83 0,61.09 -3.44,118.27 -10.19,171.48 -8.91,70.22 -24.93,127.69 -47.74,172.49l-0.4 -0.2 -1.75 3.42c-11.95,22.61 -28.29,44.67 -49.02,66.23 66.28,50.24 109.1,129.8 109.1,219.37l0 543.17c0,67.66 -2.58,129.46 -7.84,185.8 -4.68,50.23 -12.57,93.52 -23.7,130 25.35,35.12 42.62,76.47 49.07,121.32l234.78 0 0 -1050.22c0,-223.81 -3.2,-400.35 -9.48,-529.74 -6.26,-128.71 -15.38,-222.95 -27.24,-282.59 -6.33,-31.8 -18.98,-61.24 -37.93,-88.21 -22.5,-32.03 -55.09,-62.89 -97.73,-92.51l0.51 -0.73 -0.51 -0.35c-39.1,-27.35 -93.28,-49.19 -162.43,-65.46zm-640.04 2158.7c27.58,0 50.96,-1.8 70.11,-5.4 -44.72,-36.19 -79.32,-81.84 -103.64,-137.04l0.58 -0.26c-20.04,-45.06 -33.83,-101.51 -41.47,-169.76l-1.05 -8.71c-5.94,-58.15 -8.86,-123.59 -8.86,-196.75 0,-67.15 3.26,-129.77 9.88,-188.12 7.47,-65.99 19.22,-123.31 35.33,-172.15l0.94 0.31c6.16,-18.84 13.75,-37.55 22.76,-56.13 -61.55,26.18 -115.14,51.58 -160.76,76.19 -48.22,26 -76.75,44.11 -85.58,54.28 -17.32,19.96 -25.99,94.66 -25.99,224.51l0 217.27c0,104.28 9.6,184.77 28.83,241.52 9.4,27.74 17.94,44.21 25.58,49.38l-0.33 0.49c70.25,46.9 148.15,70.37 233.67,70.37zm2074.29 -2019.39c-21.62,-35.35 -35.42,-75.88 -39.15,-119.08l-229.65 0 0 2089.58 227.86 0 0 -1555.37c0,-22.8 0.7,-76.87 2.09,-162.09 0.87,-53.63 1.9,-88.86 3.06,-105.35 3.37,-48.79 14.21,-95.61 32.72,-140.46l3.07 -7.23zm662.25 -158.75c-9.39,2.4 -18.57,5.3 -27.54,8.69 54.23,49.69 90.62,112.87 108.76,189.47l-0.28 0.07c10.22,42.94 17.21,112.21 21.07,207.81 3.85,95.44 5.74,202.37 5.74,321.29l0 1401.92 227.87 0 0 -1446.05c0,-112.15 2.4,-209.12 7.27,-291.1 5.1,-85.8 14.58,-152.96 28.55,-201.55l3.48 -11.59c-4.56,-6.16 -8.9,-12.54 -13,-19.18 -37.78,-61.24 -79.64,-105.49 -125.64,-132.74 -40.8,-24.17 -90.01,-36.25 -147.67,-36.25 -35.08,0 -64.67,3.08 -88.61,9.21zm1028.27 -0.04c-7.76,2.07 -15.39,4.49 -22.88,7.26 53.59,48.47 90.64,110.08 111.41,184.66l-0.14 0.04c13.39,47.59 22.42,115.08 27.22,202.69 4.53,82.77 6.76,178.85 6.76,288.59l0 1446.05 227.86 0 0 -1601.54c0,-102.68 -2.87,-188.7 -8.52,-258.06 -5.21,-64 -11.85,-111.21 -19.83,-141.64 -3.99,-15.34 -11.02,-30.18 -21.05,-44.42 -11.45,-16.25 -27.3,-31.84 -47.55,-46.72l0.28 -0.38 -2.43 -1.77c-39.14,-29.28 -97.44,-43.93 -173.71,-43.93 -28.76,0 -54.55,3.06 -77.42,9.17zm2444.15 1338.43l0 -647.05c0,-92.69 -2.51,-166.13 -7.52,-220.3 -4.71,-50.91 -11.53,-92.16 -20.43,-123.79 -7.34,-26.07 -18.26,-52.5 -32.68,-79.24 -13.96,-25.88 -30.6,-51.32 -49.83,-76.27 -3.37,-3.68 -6.65,-7.47 -9.85,-11.38 -20.75,-25.34 -44.75,-47.56 -71.94,-66.61 -32.18,-22.55 -72.2,-43.78 -120.02,-63.66l0.16 -0.38c-14.06,-5.78 -28.77,-11.16 -44.11,-16.14 20.39,23.66 37.68,50.34 51.89,80.03 3.15,6.26 6.09,12.69 8.8,19.28 18.42,44.75 30.74,102.32 36.68,172.16 4.32,50.84 6.54,113.4 6.54,187.37l0 1218.05c0,61.72 -2.58,117.99 -7.84,169.08 -6.91,67.17 -20.17,122.57 -39.97,166.46 -16.97,37.69 -38.86,70.7 -65.75,99.07 19.14,-5.43 37.87,-11.54 56.2,-18.32l0.09 0.23c38.4,-14.61 73.1,-32.81 104.04,-54.66 29.98,-21.17 56.37,-45.77 79.12,-73.86 25.6,-31.61 46.76,-64.34 63.44,-98.22 15.15,-30.76 26.3,-62.75 33.44,-96.01 9.26,-43.41 16.49,-102.15 21.6,-176.38 5.26,-76.52 7.94,-172.94 7.94,-289.46zm-1007.25 794.25c30.91,9.74 63.44,17.88 97.55,24.4 -30.53,-29.46 -55.49,-64.35 -74.95,-104.66 -3.19,-6.28 -6.17,-12.72 -8.91,-19.33 -17.86,-42.71 -30.32,-99.2 -37.13,-169.08 -5.37,-55.18 -8.12,-115.32 -8.12,-179.99l0 -1191.57c0,-68.38 2.75,-131.74 8.13,-189.56 6.96,-74.81 20.5,-134.51 40.35,-178.57l1.07 -2.15c18.2,-39.41 41.63,-73.73 70.35,-102.95 -54.69,14.37 -101.22,33.19 -139.51,56.38 -43.46,26.33 -80.04,56.67 -109.65,90.98 -23.49,27.22 -42.3,56.78 -56.4,88.67 -1.66,5.31 -3.47,10.61 -5.48,15.88 -40.77,106.64 -61.17,265.59 -61.17,477.97l0 676.92c0,105.32 3.22,195.92 9.71,271.68 6.08,71 14.11,125.74 24.07,164.01 9.7,37.22 22.07,70.56 37.08,99.95 14.03,27.48 31.23,53.02 51.55,76.56 16.01,18.57 35.79,35.13 59.31,49.64 25.28,15.6 54.66,29.22 88.08,40.84 4.7,1.2 9.39,2.52 14.07,3.98zm3580.72 -3.39l252.06 -2089.58 -147.09 0c-30.11,192.64 -56.13,379.39 -78.01,560.18 -30.32,250.51 -51.84,481.58 -64.53,693.03 -6.73,132.56 -108.98,244.25 -245.13,258.72 -70.16,7.46 -136.95,-12.22 -189.92,-50.58 16.69,132.69 29.1,230.13 37.47,294.43 14.67,112.64 29.47,224.03 44.32,333.8l390.83 0zm-1006.77 -1179.19c43.2,-51.29 105.14,-87.02 176.96,-95.78 74.85,-9.13 146.33,12.73 201.59,55.5l-95.2 -870.11 -175.83 0c-50.91,430.01 -84.85,717.77 -107.52,910.39zm-156.95 834.76c19.05,-113.96 35.75,-223.01 50.2,-327.31 -43.54,50.79 -105.63,85.91 -177.34,94.09 -150.75,17.2 -286.92,-91.05 -304.12,-241.8l-149.27 -1270.13 -131.75 0 268.72 2089.58 391.98 0 50.5 -339.05 0.25 0.04 0.83 -5.42zm3105.55 -930.66l298.52 0 0 -74.55c0,-116.01 -6.24,-216.51 -18.76,-301.25 -11.16,-75.51 -27.15,-138.18 -48.01,-187.81l0.39 -0.16 -0.39 -0.91c-17.14,-40.97 -40.83,-78.1 -70.99,-111.3 -32.95,-36.28 -73.61,-68.52 -121.88,-96.68 -29.6,-17.26 -62.07,-32.07 -97.41,-44.43 26.96,31.9 48.32,68.96 64.07,111.2 16.95,45.46 28.3,101.72 34,169.06 4.44,52.45 6.67,116.17 6.67,191.37l0 192.83c0,56.47 -17.03,108.95 -46.21,152.63zm-744.36 275.11c0,-86.37 39.82,-163.43 102.09,-213.87 -62.27,-50.44 -102.09,-127.5 -102.09,-213.87l0 -192.83c0,-74.81 1.91,-139.17 5.72,-193.1l0.44 -7.16c5.43,-72.84 16.98,-131.29 34.63,-175.45 16.91,-42.26 40.31,-78.91 70.17,-109.93 -35.39,9.98 -68.39,22.02 -99,36.11 -5.51,3.23 -11.16,6.31 -16.96,9.2 -43.61,21.7 -80.45,47.65 -110.53,77.73 -29.88,29.88 -53.2,62.74 -69.95,98.45 -20.07,42.99 -35.99,98.65 -47.71,167.02 -12.74,74.33 -19.12,162.16 -19.12,263.48l0 770.62c0,96.89 2.82,174.93 8.39,234.3 5.16,55.1 13.21,102.61 24.03,142.49l-0.28 0.08 0.28 0.99c8.69,32.24 20.56,62.68 35.66,91.23 15.44,29.21 34.92,57.73 58.51,85.51 19.4,22.85 43.52,43.86 72.33,62.99 33.7,22.38 73.16,42.12 118.33,59.14 15.14,5.75 30.65,11.06 46.53,15.92 -21.79,-23.73 -40.31,-50.55 -55.58,-80.5l0.88 -0.45 -1.95 -3.85c-22.97,-46.87 -38.44,-105.21 -46.18,-174.66 -5.72,-51.3 -8.64,-110.48 -8.64,-177.22l0 -572.37zm775.36 898.68c-20.15,45.02 -46.7,83.9 -79.58,116.6 18.51,-5.54 35.74,-11.72 51.7,-18.53l0.22 0.51c35.75,-15.6 68.57,-34.98 98.25,-58.15 27.8,-21.7 53.72,-48.37 77.64,-80.06 28.76,-38.09 51.43,-73.23 67.95,-105.34 11.73,-22.8 20.36,-43.11 25.88,-60.94l2.43 -11.64c6.97,-29.96 12.46,-69.68 16.46,-119.05 2.77,-34.16 4.66,-72.79 5.68,-115.87l-210.68 0 0 73.88c0,74.27 -3.27,139.81 -9.87,196.65 -7.81,67.1 -21.93,124.87 -42.46,173.4l-3.62 8.54z"/>
   <path class="fil4" d="M1330.79 4307.57l592.74 0c395.15,0 662.66,14.93 802.53,45.49 139.86,30.55 253.93,108.63 342.19,234.24 88.27,124.93 132.4,325.22 132.4,599.52 0,250.54 -31.23,418.92 -93.7,505.15 -61.78,86.22 -184.67,137.82 -367.99,154.8 165.66,41.41 277.69,96.41 334.72,165.66 57.04,68.58 92.34,132.4 105.92,190.11 14.26,57.71 21.05,216.59 21.05,476.63l0 850.74 -778.09 0 0 -1072.08c0,-172.45 -13.58,-279.05 -40.74,-320.47 -26.48,-41.41 -97.09,-61.78 -211.83,-61.78l0 1454.33 -839.2 0 0 -3222.34zm839.2 549.95l0 716.99c93.7,0 158.88,-12.91 196.22,-38.71 37.34,-25.8 56.35,-109.99 56.35,-251.89l0 -177.21c0,-102.52 -18.33,-169.74 -54.31,-201.65 -35.99,-31.91 -102.53,-47.53 -198.26,-47.53zm3151.05 1397.3l-1042.88 0 0 572.37c0,119.49 8.83,196.89 25.8,231.52 17.65,34.63 50.92,51.6 100.49,51.6 61.78,0 103.2,-23.08 123.57,-68.57 21.04,-46.17 31.23,-135.12 31.23,-266.83l0 -348.99 761.79 0 0 195.54c0,163.63 -10.18,289.24 -30.55,376.82 -21.05,87.59 -69.25,181.29 -144.62,281.09 -75.36,99.81 -171.78,174.5 -287.88,224.74 -116.1,49.56 -261.4,74.69 -436.57,74.69 -169.74,0 -319.79,-24.45 -450.15,-74.01 -129.68,-48.89 -230.85,-116.1 -303.5,-201.65 -72.64,-85.55 -122.21,-179.93 -150.05,-283.13 -27.83,-102.52 -42.09,-251.89 -42.09,-448.79l0 -770.62c0,-230.85 31.23,-412.81 93.7,-546.56 62.46,-133.08 164.3,-235.6 306.21,-306.21 142.58,-71.3 305.53,-106.6 490.21,-106.6 225.41,0 411.45,42.77 558.1,128.32 146.66,85.55 249.86,198.94 308.93,340.16 59.07,140.55 88.26,339.48 88.26,595.45l0 349.66zm-802.53 -427.74l0 -192.83c0,-137.15 -7.47,-224.73 -22.4,-264.79 -14.94,-40.06 -45.49,-59.75 -91.66,-59.75 -57.04,0 -92.34,16.97 -105.92,50.92 -13.58,33.95 -20.37,124.93 -20.37,273.62l0 192.83 240.35 0zm2795.28 -936.97l-325.9 1053.07 419.6 1586.73 -767.91 0 -252.57 -1149.48 -2.04 1149.48 -802.53 0 0 -3222.34 802.53 0 2.04 1355.2 252.57 -772.66 674.21 0zm1042.88 -582.54l0 3222.34 -826.97 0 0 -3222.34 826.97 0zm1006.22 1605.06l-753.64 0 0 -177.21c0,-204.37 23.76,-361.89 70.61,-473.24 46.85,-110.67 141.9,-208.44 283.8,-293.31 141.91,-84.87 325.91,-127.64 553.36,-127.64 271.58,0 476.63,48.2 614.46,144.62 137.82,95.73 220.66,213.87 248.5,353.74 27.83,139.86 42.09,428.42 42.09,864.99l0 1325.33 -782.16 0 0 -235.6c-48.89,95.06 -112.71,165.67 -190.11,213.19 -77.4,47.53 -169.74,71.3 -277.69,71.3 -140.55,0 -269.55,-39.38 -387.01,-118.14 -117.46,-79.44 -175.85,-251.9 -175.85,-518.73l0 -217.27c0,-197.57 31.23,-332.01 93.69,-403.98 62.47,-71.97 217.27,-155.48 464.41,-250.53 264.12,-103.88 405.34,-173.14 424.35,-209.12 18.33,-35.99 27.84,-108.64 27.84,-219.31 0,-137.83 -10.18,-227.45 -31.23,-269.54 -20.37,-41.42 -55,-62.47 -103.2,-62.47 -55,0 -88.95,17.65 -101.85,52.96 -13.58,34.63 -20.37,126.29 -20.37,273.62l0 276.34zm256.65 361.88c-129.68,94.38 -205.05,173.14 -225.41,236.96 -21.05,63.82 -31.24,154.8 -31.24,274.3 0,137.15 8.83,224.74 27.16,264.79 17.65,40.06 53.64,59.75 107.28,59.75 50.92,0 83.51,-15.61 99.13,-46.85 15.61,-31.23 23.08,-112.7 23.08,-245.78l0 -543.17zm1873.25 -1384.4l-12.22 251.22c62.47,-99.81 136.47,-175.17 222.7,-224.74 85.55,-50.24 184,-75.36 293.99,-75.36 214.55,0 382.94,99.81 506.51,300.1 67.21,-99.81 143.26,-175.17 228.13,-224.74 84.87,-50.24 178.56,-75.36 282.44,-75.36 135.8,0 249.18,33.27 338.13,99.81 89.62,65.85 146.65,147.33 171.77,243.74 25.12,95.74 38.02,251.9 38.02,468.48l0 1876.65 -778.08 0 0 -1721.16c0,-225.42 -7.47,-364.61 -23.09,-418.24 -14.94,-53.64 -50.24,-80.8 -106.59,-80.8 -57.04,0 -93.7,26.48 -110,79.44 -16.97,52.96 -25.12,192.82 -25.12,419.6l0 1721.16 -778.09 0 0 -1677.03c0,-258.68 -6.11,-414.17 -19.01,-465.77 -12.22,-51.6 -47.52,-77.4 -104.56,-77.4 -35.98,0 -65.86,13.58 -91.66,40.74 -25.12,27.16 -38.7,60.43 -41.41,99.81 -2.72,38.7 -4.08,122.21 -4.08,249.17l0 1830.48 -778.08 0 0 -2639.8 790.3 0zm4163.39 926.78l0 647.05c0,237.64 -12.22,411.45 -35.99,522.8 -23.76,110.67 -74.68,213.87 -152.76,310.29 -78.08,96.41 -178.57,167.02 -301.46,213.19 -122.89,45.49 -263.44,68.58 -422.31,68.58 -177.89,0 -328.62,-19.69 -451.51,-58.4 -123.57,-39.38 -219.31,-98.44 -287.2,-177.2 -68.58,-79.44 -117.46,-175.18 -146.66,-287.2 -29.19,-112.03 -43.45,-280.41 -43.45,-504.47l0 -676.92c0,-245.79 26.48,-437.25 79.44,-575.76 52.96,-137.83 148.69,-248.5 286.52,-332.01 137.83,-83.52 314.36,-125.61 528.91,-125.61 179.92,0 334.73,27.16 464.41,80.79 129,53.64 228.81,123.58 299.42,209.8 69.93,86.23 118.14,175.17 143.94,266.83 25.8,91.66 38.7,230.85 38.7,418.24zm-802.53 -198.93c0,-135.11 -7.47,-220.66 -21.73,-255.29 -14.94,-35.31 -46.17,-52.96 -94.37,-52.96 -48.21,0 -80.12,17.65 -96.42,52.96 -15.61,34.63 -23.76,120.18 -23.76,255.29l0 1191.57c0,124.93 8.15,206.41 23.76,243.75 16.3,38.02 47.53,57.03 94.38,57.03 48.2,0 79.44,-16.97 95.05,-51.6 15.62,-34.63 23.09,-108.63 23.09,-222.7l0 -1218.05zm3662.99 -727.85l-318.44 2639.8 -873.82 0c-44.81,-322.51 -100.48,-748.21 -166.34,-1277.12 -25.12,232.88 -57.03,467.12 -96.41,702.72l-85.55 574.4 -869.75 0 -339.48 -2639.8 687.79 0c8.14,69.26 67.21,573.72 177.88,1514.08 11.55,-97.77 70.61,-602.91 178.57,-1514.08l666.06 0 165.67 1514.08c26.47,-442.68 87.58,-947.82 183.31,-1514.08l690.51 0zm1953.36 1364.71l-1042.88 0 0 572.37c0,119.49 8.83,196.89 25.8,231.52 17.65,34.63 50.92,51.6 100.49,51.6 61.78,0 103.2,-23.08 123.57,-68.57 21.04,-46.17 31.23,-135.12 31.23,-266.83l0 -348.99 761.79 0 0 195.54c0,163.63 -10.18,289.24 -30.55,376.82 -21.05,87.59 -69.25,181.29 -144.62,281.09 -75.36,99.81 -171.78,174.5 -287.88,224.74 -116.1,49.56 -261.4,74.69 -436.57,74.69 -169.74,0 -319.79,-24.45 -450.15,-74.01 -129.68,-48.89 -230.85,-116.1 -303.5,-201.65 -72.64,-85.55 -122.21,-179.93 -150.05,-283.13 -27.83,-102.52 -42.09,-251.89 -42.09,-448.79l0 -770.62c0,-230.85 31.23,-412.81 93.7,-546.56 62.46,-133.08 164.3,-235.6 306.21,-306.21 142.58,-71.3 305.53,-106.6 490.21,-106.6 225.41,0 411.45,42.77 558.1,128.32 146.66,85.55 249.86,198.94 308.93,340.16 59.07,140.55 88.26,339.48 88.26,595.45l0 349.66zm-802.53 -427.74l0 -192.83c0,-137.15 -7.47,-224.73 -22.4,-264.79 -14.94,-40.06 -45.49,-59.75 -91.66,-59.75 -57.04,0 -92.34,16.97 -105.92,50.92 -13.58,33.95 -20.37,124.93 -20.37,273.62l0 192.83 240.35 0z"/>
  </g>
 </g>
</svg>
